<svg aria-hidden="true" style="position: absolute; width: 0; height: 0; overflow: hidden;" version="1.1" xmlns="http://www.w3.org/2000/svg" xmlns:xlink="http://www.w3.org/1999/xlink">
<defs>
<symbol id="icon-search" viewBox="0 0 32 32">
<path d="M31.008 27.231l-7.58-6.447c-0.784-0.705-1.622-1.029-2.299-0.998 1.789-2.096 2.87-4.815 2.87-7.787 0-6.627-5.373-12-12-12s-12 5.373-12 12 5.373 12 12 12c2.972 0 5.691-1.081 7.787-2.87-0.031 0.677 0.293 1.515 0.998 2.299l6.447 7.58c1.104 1.226 2.907 1.33 4.007 0.23s0.997-2.903-0.23-4.007zM12 20c-4.418 0-8-3.582-8-8s3.582-8 8-8 8 3.582 8 8-3.582 8-8 8z"></path>
</symbol>
<symbol id="icon-heart" viewBox="0 0 32 32">
<path d="M23 2c-2.404 0-4.331 0.863-6.030 2.563-0.001 0.001-0.002 0.002-0.003 0.003h-0.001l-0.966 1.217-0.966-1.143c-0.001-0.001-0.002-0.002-0.003-0.003h-0.001c-1.7-1.701-3.626-2.637-6.030-2.637s-4.664 0.936-6.364 2.636c-1.699 1.7-2.636 3.96-2.636 6.364 0 2.402 0.935 4.662 2.633 6.361l11.947 12.047c0.375 0.379 0.887 0.592 1.42 0.592s1.045-0.213 1.42-0.592l11.946-12.047c1.698-1.699 2.634-3.958 2.634-6.361s-0.937-4.664-2.636-6.364c-1.7-1.7-3.96-2.636-6.364-2.636v0z"></path>
</symbol>
<symbol id="icon-close" viewBox="0 0 32 32">
<path d="M6.654 5.32c-0.736 0-1.333 0.597-1.333 1.333 0 0.375 0.154 0.713 0.403 0.955l8.391 8.391-8.391 8.391c-0.253 0.243-0.41 0.584-0.41 0.962 0 0.736 0.597 1.333 1.333 1.333 0.378 0 0.719-0.157 0.961-0.41l0-0 8.391-8.391 8.391 8.391c0.243 0.253 0.584 0.41 0.962 0.41 0.736 0 1.333-0.597 1.333-1.333 0-0.378-0.157-0.719-0.41-0.961l-0-0-8.391-8.391 8.391-8.391c0.249-0.243 0.404-0.581 0.404-0.956 0-0.736-0.597-1.333-1.333-1.333-0.014 0-0.028 0-0.041 0.001l0.002-0c-0.36 0.011-0.683 0.163-0.916 0.403l-8.391 8.391-8.391-8.391c-0.242-0.249-0.581-0.404-0.956-0.404v0z"></path>
</symbol>
<symbol id="icon-user" viewBox="0 0 32 32">
<path d="M21.333 8c0 2.946-2.388 5.333-5.333 5.333s-5.333-2.388-5.333-5.333c0-2.946 2.388-5.333 5.333-5.333s5.333 2.388 5.333 5.333z"></path>
<path d="M26.667 23.333c0 3.314 0 6-10.667 6s-10.667-2.686-10.667-6c0-3.314 4.776-6 10.667-6s10.667 2.686 10.667 6z"></path>
</symbol>
<symbol id="icon-username" viewBox="0 0 32 32">
<path d="M30.275 10.025h-8.582v-2.088c0-3.145-2.549-5.694-5.694-5.694-3.143 0-5.693 2.549-5.693 5.694v2.088h-8.581c-0.952 0-1.725 0.773-1.725 1.725v16.282c0 0.952 0.773 1.725 1.725 1.725h28.55c0.952 0 1.725-0.773 1.725-1.725v-16.282c0-0.952-0.773-1.725-1.725-1.725zM27.911 17.758c0 0.442-0.358 0.8-0.8 0.8h-8.299c-0.442 0-0.8-0.358-0.8-0.8s0.358-0.8 0.8-0.8h8.299c0.442 0 0.8 0.359 0.8 0.8zM23.733 12.691c0.441 0 0.8 0.358 0.8 0.8s-0.358 0.8-0.8 0.8h-4.922c-0.442 0-0.8-0.358-0.8-0.8s0.358-0.8 0.8-0.8h4.922zM15.999 4.73c1.257 0 2.276 1.019 2.276 2.276s-1.019 2.275-2.276 2.275c-1.256 0-2.275-1.019-2.275-2.275 0-1.257 1.019-2.276 2.275-2.276zM15.528 25.055c0 1.245-1.014 2.258-2.258 2.258h-8.591c-1.245 0-2.258-1.014-2.258-2.258v-10.329c0-1.244 1.014-2.258 2.258-2.258h8.591c1.244 0 2.258 1.014 2.258 2.258v10.329zM29.067 27.091h-4.922c-0.442 0-0.8-0.358-0.8-0.8s0.358-0.8 0.8-0.8h4.922c0.442 0 0.8 0.358 0.8 0.8s-0.358 0.8-0.8 0.8zM29.067 22.825h-10.255c-0.442 0-0.8-0.359-0.8-0.8s0.358-0.8 0.8-0.8h10.255c0.442 0 0.8 0.358 0.8 0.8s-0.358 0.8-0.8 0.8z"></path>
<path d="M13.27 13.535h-8.591c-0.657 0-1.192 0.535-1.192 1.191v10.329c0 0.657 0.535 1.191 1.192 1.191h8.591c0.657 0 1.191-0.534 1.191-1.191v-10.329c0-0.657-0.534-1.191-1.191-1.191zM8.974 14.498c1.519 0 2.754 1.623 2.754 3.624s-1.235 3.626-2.754 3.626c-1.52 0-2.754-1.625-2.754-3.626s1.235-3.624 2.754-3.624zM12.966 25.026c-0.084 0.101-0.207 0.158-0.338 0.158h-7.307c-0.13 0-0.254-0.058-0.338-0.158-0.085-0.1-0.119-0.233-0.096-0.361 0.183-1.028 0.739-1.904 1.515-2.514 0.021-0.015 0.039-0.038 0.061-0.056 0.697 0.647 1.566 1.038 2.511 1.038 0.944 0 1.812-0.391 2.512-1.038 0.019 0.019 0.039 0.041 0.061 0.056 0.772 0.609 1.327 1.485 1.512 2.514 0.023 0.129-0.011 0.261-0.095 0.361z"></path>
</symbol>
<symbol id="icon-arrowup" viewBox="0 0 32 32">
<path d="M31.574 22.244l-14.546-14.545c-0.273-0.273-0.643-0.426-1.028-0.426s-0.756 0.153-1.029 0.426l-14.545 14.545c-0.568 0.568-0.568 1.489 0 2.057s1.489 0.568 2.057 0l13.517-13.517 13.517 13.517c0.284 0.284 0.656 0.426 1.029 0.426s0.745-0.142 1.029-0.426c0.568-0.568 0.568-1.489-0-2.057z"></path>
</symbol>
<symbol id="icon-arrowdown" viewBox="0 0 32 32">
<path d="M31.574 7.699c-0.568-0.568-1.489-0.568-2.057 0l-13.517 13.517-13.517-13.517c-0.568-0.568-1.489-0.568-2.057 0s-0.568 1.489 0 2.057l14.546 14.545c0.273 0.273 0.643 0.426 1.028 0.426s0.756-0.153 1.028-0.426l14.545-14.545c0.568-0.568 0.568-1.489 0-2.057z"></path>
</symbol>
<symbol id="icon-error" viewBox="0 0 24 24">
<path d="M12 20.016q3.281 0 5.648-2.367t2.367-5.648-2.367-5.648-5.648-2.367-5.648 2.367-2.367 5.648 2.367 5.648 5.648 2.367zM12 2.016q4.125 0 7.055 2.93t2.93 7.055-2.93 7.055-7.055 2.93-7.055-2.93-2.93-7.055 2.93-7.055 7.055-2.93zM11.016 6.984h1.969v6h-1.969v-6zM11.016 15h1.969v2.016h-1.969v-2.016z"></path>
</symbol>
</defs>
</svg>
